{"title":"Minions.2015.HC.HDRiP.XviD-VAiN","uid":12293979,"size":1495108391,"categoryP":"video","categoryS":"movies","magnet":"?xt=urn:btih:40801185780fbaafba0c10bcb14eb02a59af581a&amp;dn=Minions.2015.HC.HDRiP.XviD-VAiN&amp;tr=udp%3A%2F%2Ftracker.openbittorrent.com%3A80&amp;tr=udp%3A%2F%2Fopen.demonii.com%3A1337&amp;tr=udp%3A%2F%2Ftracker.coppersurfer.tk%3A6969&amp;tr=udp%3A%2F%2Fexodus.desync.com%3A6969","seeders":2,"leechers":0,"uploader":"TvTeam","files":4,"time":1440597479,"description":"------------------------------------------------------------------------\n\n &lt;a href=&quot; https://www.torrenting.com&quot; rel=&quot;nofollow&quot; target=&quot;_NEW&quot;&gt; https://www.torrenting.com&lt;/a&gt;\n\nSign up is OPEN - for time being. Come and have fun\n\n.......................................................................................................................[img]http://i.imgur.com/FJi0aRt.png[/img] \n\n[b]P R E S E N T S . . . .[/b] \n\nMinions.2015.HC.HDRiP.XviD-VAiN\n\niMDB........: http://www.imdb.com/title/tt2293640/\n\nPLOT........: Minions Stuart, Kevin and Bob are recruited by Scarlett Overkill, a super-villain who, alongside her inventor husband Herb, hatches a plot to take over the world \n\nT E C H N i C A L . i N F O . . .\n\nBasic Information\nFormat                      : AVI\nFormat/Info                 : Audio Video Interleave\nFile size                   : 1.37 GiB\nDuration                    : 1h 30mn\nOverall bit rate            : 2 165 Kbps\nWriting application         : VirtualDubMod 1.5.10.2 (build 2540/release)\nWriting library             : VirtualDubMod build 2540/release\n\nVideo\nID                          : 0\nFormat                      : MPEG-4 Visual\nFormat profile              : Advanced Simple@L5\nFormat settings, BVOP       : 1\nFormat settings, QPel       : No\nFormat settings, GMC        : No warppoints\nFormat settings, Matrix     : Default (MPEG)\nCodec ID                    : XVID\nCodec ID/Hint               : XviD\nDuration                    : 1h 30mn\nBit rate                    : 1 964 Kbps\nWidth                       : 720 pixels\nHeight                      : 384 pixels\nDisplay aspect ratio        : 1.85:1\nFrame rate                  : 24.000 fps\nColor space                 : YUV\nChroma subsampling          : 4:2:0\nBit depth                   : 8 bits\nScan type                   : Progressive\nCompression mode            : Lossy\nBits/(Pixel*Frame)          : 0.296\nStream size                 : 1.25 GiB (91%)\nWriting library             : XviD 67\n\nAudio\nID                          : 1\nFormat                      : AC-3\nFormat/Info                 : Audio Coding 3\nMode extension              : CM (complete main)\nFormat settings, Endianness : Big\nCodec ID                    : 2000\nDuration                    : 1h 30mn\nBit rate mode               : Constant\nBit rate                    : 192 Kbps\nChannel(s)                  : 2 channels\nChannel positions           : Front: L R\nSampling rate               : 48.0 KHz\nCompression mode            : Lossy\nStream size                 : 125 MiB (9%)\nAlignment                   : Split accross interleaves\nInterleave, duration        : 42 ms (1.00 video frame)\nInterleave, preload duratio : 500 ms\n\nE N C O D E R S . N O T E S . . .       \n\nSOURCE......: ViDEO...1080p WEB-DL\n............: AUDiO...ENG\nSAMPLE......: Yippers \nADDED NOTE..: Has HC subs through out the whole thing. adjusted some filters took that washed out look by fixing the black lvls best we could without killing it. overall a better looking video... Audio was pretty gud also. \n\n\n\nS C R E E N . S H O T S . . .\n\n[img]http://i.imgur.com/qLCJPgI.png[/img]\n\n[img]http://i.imgur.com/uHlgwKl.png[/img]\n\n[img]http://i.imgur.com/VCsvD96.png[/img]\n\n[img]http://i.imgur.com/AQ9PWzP.png[/img]\n\n[img]http://i.imgur.com/cs9ycpi.png[/img]\n\n[img]http://i.imgur.com/ExSLh2f.png[/img]\n\n[img]http://i.imgur.com/jw1HIAE.png[/img]\n\n\n\n\n\ngot any funny stories, jokes, nakid pix of ya sisters/gf's or just want to reach out to us giz us some treats send to... &lt;a class=&quot;__cf_email__&quot; href=&quot;/cdn-cgi/l/email-protection&quot; data-cfemail=&quot;4315022a0d032b36302b2e222a2f6d2e26&quot;&gt;[email&amp;#160;protected]&lt;/a&gt;&lt;script data-cfhash='f9e31' type=&quot;text/javascript&quot;&gt;\n/* &lt;![CDATA[ */!function(){try{var t=&quot;currentScript&quot;in document?document.currentScript:function(){for(var t=document.getElementsByTagName(&quot;script&quot;),e=t.length;e--;)if(t[e].getAttribute(&quot;data-cfhash&quot;))return t[e]}();if(t&amp;&amp;t.previousSibling){var e,r,n,i,c=t.previousSibling,a=c.getAttribute(&quot;data-cfemail&quot;);if(a){for(e=&quot;&quot;,r=parseInt(a.substr(0,2),16),n=2;a.length-n;n+=2)i=parseInt(a.substr(n,2),16)^r,e+=String.fromCharCode(i);e=document.createTextNode(e),c.parentNode.replaceChild(e,c)}t.parentNode.removeChild(t);}}catch(u){}}()/* ]]&gt; */&lt;/script&gt; ;) \n\n***DISCLAiMER*** as you can see there were no special friend that passed us some special vobs. what you see here is work put into a source. sum may like others may just hate...VAiN stands behind it's QUALiTY and don't claim to be professional HDTSCAMBDBRiPDVDRiPSCRHQ ENCODERS. just a cpl of fella's nipping at ya mums knickers..... \n\n\nGREETZ:\n\nHive-CM8 | Rx | REFiLL | JEDI | SDi | 26k |Unevano | EsX | TOFFEE\nGH0ST | ViSiON | Sugarb | DeviAntsRUs | STARLETS | GUSH | A.C.A.B. | jamie111 | TED |\n\nAnd all the release grps that don't hide behind new names, or live in the past n glory of old has been that neva were release grps\n\nCheer's to our wives n girlfriends... may they neva meet :shifty","torrent":{"xt":"urn:btih:40801185780fbaafba0c10bcb14eb02a59af581a","amp;dn":"Minions.2015.HC.HDRiP.XviD-VAiN","amp;tr":["udp%3A%2F%2Ftracker.openbittorrent.com%3A80","udp%3A%2F%2Fopen.demonii.com%3A1337","udp%3A%2F%2Ftracker.coppersurfer.tk%3A6969","udp%3A%2F%2Fexodus.desync.com%3A6969"],"infoHash":"40801185780fbaafba0c10bcb14eb02a59af581a","infoHashBuffer":{"type":"Buffer","data":[64,128,17,133,120,15,186,175,186,12,16,188,177,78,176,42,89,175,88,26]},"announce":[],"urlList":[]}}